# xmcd
#
# Track frame offsets:
#	225
#	18667
#	29910
#	48194
#	90023
#	113714
#	125601
#	147961
#	170612
#	205027
#	219629
#
# Disc length: 3154 seconds
#
# Revision: 0
# Processed by: cddbd v1.5.1PL2 Copyright (c) Steve Scherf et al.
# Submitted via: EasyCDDAExtractor 9.0.0.1
#
DISCID=990c4f0b
DTITLE=Musikkapelle Hatting - Gruss aus Hatting
DYEAR=2003
DGENRE=Volksmusik
TTITLE0=Gruss aus Hatting
TTITLE1=Festival Fanfare
TTITLE2=Unser Ideal
TTITLE3=so klingts bei uns dahoam
TTITLE4=Illuminations
TTITLE5=der Heimat treu
TTITLE6=Centennial
TTITLE7=Preludio Piccolo
TTITLE8=La Storia
TTITLE9=Musikantentraum
TTITLE10=Textilaku
EXTD=
EXTT0=
EXTT1=
EXTT2=
EXTT3=
EXTT4=
EXTT5=
EXTT6=
EXTT7=
EXTT8=
EXTT9=
EXTT10=
PLAYORDER=
